# xmcd
#
# Track frame offsets: 
#        150
#        17870
#        31682
#        53804
#        67489
#        88170
#        109356
#        128695
#        147955
#        162010
#        183329
#
# Disc length: 2618 seconds
#
# Revision: 1
# Processed by: cddbd v1.5.2PL0 Copyright (c) Steve Scherf et al.
# Submitted via: ExactAudioCopyFreeDBPlugin 1.0
#
DISCID=980a380b
DTITLE=Shades Of Blue - Do Right By Me
DYEAR=2011
DGENRE=Blues
TTITLE0=Deeper
TTITLE1=Do Right By Me
TTITLE2=Wasteland America
TTITLE3=Lucy, Sweet Lucy
TTITLE4=Change In My Pocket
TTITLE5=Goodnight, Irene
TTITLE6=Hope You Never Know
TTITLE7=Mexican Boots
TTITLE8=Bourgeois Blues
TTITLE9=No Ticket To The Moon
TTITLE10=Enough Said
EXTD=
EXTT0=
EXTT1=
EXTT2=
EXTT3=
EXTT4=
EXTT5=
EXTT6=
EXTT7=
EXTT8=
EXTT9=
EXTT10=
PLAYORDER=
